<?xml version="1.0" encoding="UTF-8" standalone="no"?>
<svg
   viewBox="0 0 22 22"
   version="1.1"
   id="svg13164"
   sodipodi:docname="biography.svg"
   inkscape:version="1.1 (c68e22c387, 2021-05-23)"
   xmlns:inkscape="http://www.inkscape.org/namespaces/inkscape"
   xmlns:sodipodi="http://sodipodi.sourceforge.net/DTD/sodipodi-0.dtd"
   xmlns="http://www.w3.org/2000/svg"
   xmlns:svg="http://www.w3.org/2000/svg">
  <defs
     id="defs13168" />
  <sodipodi:namedview
     id="namedview13166"
     pagecolor="#ffffff"
     bordercolor="#666666"
     borderopacity="1.0"
     inkscape:pageshadow="2"
     inkscape:pageopacity="0.0"
     inkscape:pagecheckerboard="0"
     showgrid="false"
     inkscape:zoom="23.636364"
     inkscape:cx="2.6442308"
     inkscape:cy="11.021154"
     inkscape:window-width="1366"
     inkscape:window-height="705"
     inkscape:window-x="1358"
     inkscape:window-y="-8"
     inkscape:window-maximized="1"
     inkscape:current-layer="svg13164" />
  <path
     d="m4 3c-.554 0-1 .446-1 1v14c0 .554.446 1 1 1h14c.554 0 1-.446 1-1v-14c0-.554-.446-1-1-1h-14m6.977 2.182c1.458 0 2.713.99 2.713 2.877 0 1.227-.574 2.472-1.326 3.246h.004c-.289.877.173 1.085.246 1.109 1.748.6 3.959 2.098 3.91 4.404h-11.05c-.044-2.414 2.753-4.072 3.781-4.404.11-.04.637-.326.342-1.1-.757-.773-1.328-2.024-1.328-3.256 0-1.887 1.248-2.877 2.707-2.877"
     transform="matrix(.99999 0 0 .99999-.0001-.002)"
     fill="#282C34"
     id="path13162" />
  <path
     style="fill:#4d4d4d;stroke-width:0.0423077"
     d="M 3.6604261,18.907391 C 3.4564656,18.832735 3.2400202,18.632364 3.1164849,18.403846 L 3.025,18.234615 V 11 3.7653846 L 3.115939,3.5955994 c 0.1210457,-0.2259949 0.2951015,-0.3964893 0.5013686,-0.49111 0.1620229,-0.074325 0.4760714,-0.077671 7.3734744,-0.07856 7.955663,-0.00103 7.36031,-0.021672 7.660041,0.2656381 0.07766,0.074446 0.182375,0.2115096 0.232692,0.3045865 L 18.975,3.7653846 V 11 18.234615 l -0.09149,0.169231 c -0.05032,0.09308 -0.155099,0.230296 -0.23285,0.304932 -0.296695,0.284806 0.235497,0.266533 -7.666561,0.263241 -6.1561414,-0.0026 -7.178775,-0.01159 -7.3236779,-0.06463 z M 16.527802,16.468269 c -0.0536,-0.693163 -0.311081,-1.336397 -0.788657,-1.970187 -0.605,-0.802896 -1.654379,-1.537404 -2.908656,-2.035901 -0.46289,-0.18397 -0.538458,-0.295071 -0.509337,-0.748842 0.01551,-0.241582 0.04219,-0.344019 0.112162,-0.430556 0.718993,-0.889195 1.11229,-1.7347513 1.234949,-2.6550417 C 13.727733,8.1815449 13.69863,7.5087037 13.604344,7.15 13.351546,6.1882457 12.655193,5.4922911 11.698077,5.2448229 11.366377,5.1590597 10.637102,5.1564952 10.280769,5.2398387 9.3024648,5.468657 8.6249617,6.1455649 8.3477557,7.1711538 8.2549504,7.51451 8.2447543,8.5449519 8.3303825,8.9269231 c 0.1611263,0.7187544 0.5662948,1.5866409 0.9579308,2.0519229 0.2888037,0.343113 0.3578405,0.490177 0.3578405,0.762281 0,0.39129 -0.1070156,0.511809 -0.6689666,0.753375 C 7.701565,13.042854 6.455001,14.10428 5.8878705,15.125 c -0.19871,0.357638 -0.3869574,0.969198 -0.416581,1.353348 l -0.026139,0.33896 h 5.5548205 5.55482 z"
     id="path16554" />
  <path
     style="fill:#4d4d4d;stroke-width:0.0423077"
     d="m 3.8288462,18.911899 c -0.023269,-0.0078 -0.095144,-0.02578 -0.1597205,-0.04004 C 3.5147069,18.837757 3.2301627,18.57752 3.1277054,18.376687 3.0481186,18.220683 3.0461538,18.042965 3.0461538,11 c 0,-7.0819812 0.00155,-7.2198669 0.082847,-7.3792252 0.1165409,-0.2284391 0.4363863,-0.4986223 0.6279503,-0.5304489 0.2443248,-0.040592 13.8604929,-0.048584 14.2798549,-0.00838 0.332857,0.03191 0.389866,0.050263 0.525688,0.1692308 0.08379,0.073392 0.206119,0.2180803 0.271847,0.3215302 l 0.119505,0.1880907 v 7.2280184 c 0,7.038582 -0.0021,7.232131 -0.08103,7.384986 -0.04457,0.08633 -0.155903,0.229399 -0.247413,0.317926 -0.141184,0.136582 -0.207401,0.166888 -0.437238,0.200111 -0.245258,0.03545 -14.2545063,0.05502 -14.3593188,0.02006 z M 16.558682,16.595192 C 16.452348,15.519051 16.059388,14.718563 15.264856,13.959577 14.647694,13.370025 14.017017,12.965192 13.030769,12.525508 12.739904,12.395836 12.468606,12.2497 12.427885,12.20076 c -0.05649,-0.06789 -0.07404,-0.166696 -0.07404,-0.416851 0,-0.275297 0.01595,-0.350865 0.09945,-0.471274 0.45888,-0.661688 0.619781,-0.904955 0.619781,-0.93705 0,-0.02057 0.02648,-0.06388 0.05885,-0.09625 0.08463,-0.08463 0.317408,-0.6580207 0.437399,-1.0774109 0.0778,-0.2719221 0.108566,-0.5045675 0.126172,-0.9540389 C 13.731937,7.3176891 13.584566,6.7612169 13.1451,6.1695803 12.959343,5.9195018 12.548211,5.5634615 12.445194,5.5634615 c -0.02697,0 -0.04904,-0.016694 -0.04904,-0.037098 0,-0.046443 -0.324054,-0.186575 -0.647827,-0.280143 -0.337235,-0.097459 -1.17797,-0.097872 -1.552173,-7.625e-4 -0.867838,0.225212 -1.5442923,0.8914497 -1.8263568,1.7987728 -0.088622,0.2850705 -0.098314,0.394677 -0.0954,1.0788461 0.00316,0.7420702 0.00679,0.772354 0.141941,1.1846154 0.1899835,0.579516 0.5055536,1.2061577 0.8103378,1.6091257 0.1402014,0.185366 0.2843234,0.39212 0.3202714,0.459455 0.094936,0.177825 0.086582,0.59933 -0.014661,0.739702 -0.048538,0.0673 -0.3123725,0.227465 -0.6705918,0.407102 -1.2638716,0.633795 -2.1948418,1.397414 -2.8124514,2.306884 -0.295121,0.434585 -0.5294207,1.056649 -0.5710704,1.516189 -0.011887,0.131156 -0.03239,0.290821 -0.045562,0.354812 l -0.023949,0.116346 h 5.5859832 5.585984 z"
     id="path18398" />
</svg>
