<?xml version="1.0" encoding="UTF-8" standalone="no"?>
<!-- Generator: Adobe Illustrator 19.0.0, SVG Export Plug-In . SVG Version: 6.00 Build 0)  -->

<svg
   version="1.1"
   id="Capa_1"
   x="0px"
   y="0px"
   viewBox="0 0 490 490"
   style="enable-background:new 0 0 490 490;"
   xml:space="preserve"
   sodipodi:docname="connect.svg"
   inkscape:version="1.1 (c68e22c387, 2021-05-23)"
   xmlns:inkscape="http://www.inkscape.org/namespaces/inkscape"
   xmlns:sodipodi="http://sodipodi.sourceforge.net/DTD/sodipodi-0.dtd"
   xmlns="http://www.w3.org/2000/svg"
   xmlns:svg="http://www.w3.org/2000/svg"><defs
   id="defs105" /><sodipodi:namedview
   id="namedview103"
   pagecolor="#ffffff"
   bordercolor="#666666"
   borderopacity="1.0"
   inkscape:pageshadow="2"
   inkscape:pageopacity="0.0"
   inkscape:pagecheckerboard="0"
   showgrid="false"
   inkscape:zoom="1.0142857"
   inkscape:cx="245"
   inkscape:cy="245"
   inkscape:window-width="1366"
   inkscape:window-height="705"
   inkscape:window-x="1358"
   inkscape:window-y="-8"
   inkscape:window-maximized="1"
   inkscape:current-layer="Capa_1" />
<g
   id="g70">
	<ellipse
   cx="245.639"
   cy="154.693"
   rx="50.324"
   ry="51.162"
   id="ellipse58" />
	<path
   d="M158.728,306.884h173.823c0-48.799-38.912-88.359-86.912-88.359S158.728,258.085,158.728,306.884z"
   id="path60" />
	<path
   d="M49.729,99.439c4.652,0,9.151-0.652,13.424-1.846l52.215,60.854l23.238-19.949L88.831,80.488   c6.652-8.413,10.635-19.007,10.635-30.516c0-27.291-22.311-49.482-49.736-49.482C22.311,0.49,0,22.681,0,49.972   C0,77.248,22.311,99.439,49.729,99.439z M49.729,31.115c10.535,0,19.111,8.464,19.111,18.857c0,10.393-8.576,18.842-19.111,18.842   s-19.104-8.449-19.104-18.842C30.625,39.579,39.194,31.115,49.729,31.115z"
   id="path62" />
	<path
   d="M49.729,489.51c27.425,0,49.736-22.191,49.736-49.482c0-11.515-3.983-22.114-10.636-30.529l49.778-58.012l-23.238-19.948   l-52.216,60.854c-4.274-1.194-8.773-1.846-13.424-1.846C22.311,390.546,0,412.737,0,440.028S22.311,489.51,49.729,489.51z    M49.729,421.171c10.535,0,19.111,8.464,19.111,18.857c0,10.393-8.576,18.857-19.111,18.857s-19.104-8.464-19.104-18.857   C30.625,429.635,39.194,421.171,49.729,421.171z"
   id="path64" />
	<path
   d="M374.631,158.447l52.22-60.852c4.27,1.192,8.765,1.844,13.412,1.844c27.425,0,49.737-22.191,49.737-49.467   c0-27.291-22.311-49.482-49.737-49.482c-27.41,0-49.721,22.191-49.721,49.482c0,11.508,3.983,22.103,10.634,30.516l-49.783,58.011   L374.631,158.447z M440.263,31.115c10.543,0,19.111,8.464,19.111,18.857c0,10.393-8.569,18.842-19.111,18.842   c-10.527,0-19.096-8.449-19.096-18.842C421.167,39.579,429.736,31.115,440.263,31.115z"
   id="path66" />
	<path
   d="M401.177,409.499c-6.652,8.416-10.635,19.014-10.635,30.529c0,27.291,22.311,49.482,49.721,49.482   c27.425,0,49.737-22.191,49.737-49.482s-22.311-49.482-49.737-49.482c-4.647,0-9.142,0.652-13.412,1.844l-52.221-60.852   l-23.238,19.948L401.177,409.499z M459.375,440.028c0,10.393-8.569,18.857-19.111,18.857c-10.527,0-19.096-8.464-19.096-18.857   c0-10.393,8.569-18.857,19.096-18.857C450.806,421.171,459.375,429.635,459.375,440.028z"
   id="path68" />
</g>
<g
   id="g72">
</g>
<g
   id="g74">
</g>
<g
   id="g76">
</g>
<g
   id="g78">
</g>
<g
   id="g80">
</g>
<g
   id="g82">
</g>
<g
   id="g84">
</g>
<g
   id="g86">
</g>
<g
   id="g88">
</g>
<g
   id="g90">
</g>
<g
   id="g92">
</g>
<g
   id="g94">
</g>
<g
   id="g96">
</g>
<g
   id="g98">
</g>
<g
   id="g100">
</g>
<path
   style="fill:#333333;fill-opacity:1;stroke-width:0.985915"
   d="M 89.225352,127.14415 63.591549,97.178016 59.647887,97.884782 C 57.478873,98.273503 52.15493,98.519785 47.816901,98.432068 34.337213,98.159501 23.37681,93.026549 13.50396,82.362694 4.7618079,72.920126 0.98591549,63.09394 0.98591549,49.786386 c 0,-27.054763 21.52350651,-48.4011003 48.80281651,-48.4011003 27.108031,0 48.832681,21.4885323 48.791114,48.2608193 -0.01459,9.406045 -1.692938,15.826167 -6.429941,24.596401 l -3.700187,6.85064 24.296262,28.248884 c 13.36295,15.5369 24.29627,28.60996 24.29627,29.05126 0,0.81654 -20.14837,18.22258 -21.46347,18.54215 -0.39579,0.0962 -12.25484,-13.3099 -26.353428,-29.79129 z M 59.392033,66.830956 c 1.652498,-0.968293 4.362591,-3.440766 6.022427,-5.494384 5.524306,-6.834896 4.526081,-19.78134 -1.964478,-25.478245 -7.376462,-6.474479 -19.946037,-6.474479 -27.322499,0 -5.100571,4.476882 -7.146722,15.224494 -4.206656,22.095875 1.798708,4.203854 6.404388,8.420905 11.101825,10.165051 4.669609,1.733812 12.226861,1.139045 16.369381,-1.288297 z"
   id="path12350" /><path
   style="fill:#333333;fill-opacity:1;stroke-width:0.985915"
   d="m 236.12676,204.41562 c -7.93361,-1.49227 -18.45857,-7.25612 -24.89609,-13.63401 -9.93489,-9.84286 -15.03349,-22.04982 -15.03349,-35.99288 0,-32.37 30.38595,-57.042974 60.67314,-49.26575 22.87107,5.87289 38.28765,25.70982 38.28765,49.26575 0,31.50669 -28.40602,55.38732 -59.03121,49.62689 z"
   id="path12389" /><path
   style="fill:#333333;fill-opacity:1;stroke-width:0.985915"
   d="m 363.80282,148.30797 c -5.69367,-4.91356 -10.48246,-9.29488 -10.64176,-9.73628 -0.15931,-0.44139 10.66024,-13.55991 24.04344,-29.15228 l 24.33309,-28.34976 -3.69384,-6.838892 c -4.73073,-8.758614 -6.409,-15.181762 -6.4236,-24.584653 -0.0416,-26.772287 21.68309,-48.2608193 48.79112,-48.2608193 27.4228,0 48.80281,21.3978613 48.80281,48.8435633 0,12.850315 -3.87559,22.798963 -12.51804,32.133845 -9.87285,10.663855 -20.83326,15.796807 -34.31294,16.069374 -4.33803,0.08775 -9.66197,-0.159295 -11.83099,-0.548903 l -3.94366,-0.708384 -25.6338,29.996939 c -14.09859,16.49831 -25.85564,30.01337 -26.12676,30.03346 -0.27113,0.0201 -5.15141,-3.98365 -10.84507,-8.89721 z m 82.10441,-79.846124 c 4.63401,-1.286873 10.43672,-6.278398 12.19738,-10.492241 2.9037,-6.949549 0.85664,-17.644789 -4.23209,-22.111278 -7.37647,-6.474479 -19.94604,-6.474479 -27.3225,0 -5.19926,4.563497 -7.20208,15.603166 -4.03975,22.267287 2.09401,4.412799 6.39036,8.317158 10.93492,9.937246 4.6458,1.656181 7.59491,1.750599 12.46204,0.398986 z"
   id="path12428" /><path
   style="fill:#333333;fill-opacity:1;stroke-width:0.985915"
   d="m 159.72522,300.45775 c 0.0154,-12.66714 7.02157,-32.20963 16.11695,-44.95566 6.13014,-8.59063 17.96445,-19.49082 26.7355,-24.62519 4.1157,-2.40923 11.79512,-5.8642 17.06538,-7.67771 9.36938,-3.22401 9.94378,-3.29681 25.84991,-3.27606 15.18233,0.0198 16.82669,0.20693 24.64789,2.80483 35.28456,11.72017 57.59195,39.67115 61.64195,77.23683 l 0.66433,6.16197 h -86.36441 -86.36441 z"
   id="path12467" /><path
   style="fill:#333333;fill-opacity:1;stroke-width:0.985915"
   d="M 44.344278,488.44196 C 19.502787,485.70842 0.98591549,465.11174 0.98591549,440.21361 c 0,-14.27951 3.96802301,-23.78373 14.23989151,-34.1074 12.733052,-12.79727 29.303608,-17.68234 46.352719,-13.66498 1.641589,0.38681 6.74285,-5.06513 27.646826,-29.5474 14.098588,-16.51195 25.957638,-29.93908 26.353428,-29.83806 1.29211,0.32977 21.46347,17.72745 21.46347,18.51211 0,0.41995 -10.92585,13.49293 -24.27967,29.05107 l -24.279684,28.28753 3.971126,7.51859 c 5.030324,9.52398 6.530986,16.34438 5.912117,26.87006 -0.591322,10.05702 -3.235322,17.37999 -9.201142,25.48399 -10.286848,13.97369 -27.579649,21.56003 -44.820719,19.66284 z m 14.60345,-31.36522 c 7.274962,-3.71299 10.444431,-9.60586 9.885727,-18.38015 -0.435847,-6.84485 -3.409676,-11.88901 -9.021172,-15.30156 -9.442721,-5.74246 -23.759848,-1.31383 -27.916888,8.63537 -2.903891,6.94999 -0.854621,17.65458 4.232088,22.10677 5.80311,5.07923 16.04342,6.39832 22.820245,2.93957 z"
   id="path12506" /><path
   style="fill:#333333;fill-opacity:1;stroke-width:0.985915"
   d="m 434.76681,488.44196 c -24.65967,-2.71354 -43.38485,-23.48694 -43.34666,-48.08807 0.0146,-9.40288 1.69287,-15.82603 6.4236,-24.58465 l 3.69384,-6.83889 -24.28992,-28.29947 c -13.35946,-15.5647 -24.28992,-28.64305 -24.28992,-29.063 0,-0.95226 20.45045,-18.32844 21.57119,-18.32844 0.44983,0 12.22699,13.30986 26.17148,29.57746 13.94448,16.26761 25.87701,29.56438 26.51673,29.54838 0.63972,-0.016 4.13601,-0.39809 7.76954,-0.8491 14.67848,-1.82194 28.50123,3.24685 39.7875,14.59003 10.166,10.21727 14.23989,19.84848 14.23989,33.66494 0,29.45261 -25.00643,51.88846 -54.24727,48.67081 z m 14.60345,-31.36522 c 6.60136,-3.3692 10.06636,-9.16861 10.06636,-16.84818 0,-6.45871 -1.78773,-10.61673 -6.24864,-14.53346 -8.82326,-7.74692 -21.56791,-6.32748 -28.84445,3.21255 -5.24874,6.88145 -4.12905,19.68427 2.20649,25.22952 5.80311,5.07923 16.04342,6.39832 22.82024,2.93957 z"
   id="path12545" /><path
   style="fill:#333333;fill-opacity:1;stroke-width:0.985915"
   d="m 160.03279,299.96479 c 1.92336,-15.76078 8.78334,-33.99535 17.00064,-45.18954 4.02342,-5.481 15.26749,-16.24728 21.26484,-20.36123 6.60694,-4.53211 15.30509,-8.63792 24.32305,-11.48128 7.23946,-2.2826 9.80134,-2.57894 22.1831,-2.56605 17.48627,0.0182 23.58031,1.37094 37.66037,8.35978 17.99934,8.93422 30.9318,21.58035 39.22882,38.36027 4.0629,8.21682 8.02702,21.04414 9.01796,29.18087 0.36321,2.98239 0.89399,6.6426 1.17951,8.1338 l 0.51911,2.71127 h -86.62485 -86.62485 z"
   id="path18443" /><path
   style="fill:#4d4d4d;stroke-width:0.985915"
   d="M 110.28569,150.48025 C 107.37856,147.2645 95.904931,133.96192 84.788734,120.91897 L 64.577466,97.204505 55.211268,97.774093 C 38.241197,98.806096 26.975875,94.715069 15.678478,83.417673 5.3833578,73.122552 1.830986,64.5103 1.830986,49.846274 c 0,-35.722988 36.367418,-58.3692818 68.966111,-42.9457698 12.186621,5.7658908 22.262839,17.8372128 25.774246,30.8775838 3.041172,11.294048 0.703708,26.342718 -5.912738,38.066417 l -2.92642,5.185331 6.726245,7.794942 c 21.11818,24.473532 41.59791,48.857252 41.59791,49.527582 0,0.64345 -13.32882,12.46104 -18.86924,16.72983 -1.39206,1.07256 -2.34742,0.43552 -6.90141,-4.60194 z M 56.139766,68.537594 c 3.771589,-1.081677 9.336083,-5.981236 11.512472,-10.13678 2.126518,-4.060315 1.581105,-14.496285 -0.997761,-19.091255 -4.476629,-7.976366 -17.568673,-10.913706 -27.093329,-6.078676 -6.5908,3.345707 -9.227364,8.77653 -8.800975,18.128336 0.26366,5.782706 0.778235,7.595312 2.973141,10.472984 4.938752,6.475037 13.879891,9.150777 22.406452,6.705391 z"
   id="path71" /><path
   style="fill:#4d4d4d;stroke-width:0.985915"
   d="m 233.07795,203.0524 c -9.1474,-3.2085 -14.1633,-6.18313 -20.30603,-12.0423 -10.92466,-10.42037 -15.65996,-21.1532 -15.72885,-35.65032 -0.0486,-10.23103 1.12938,-15.10464 5.81624,-24.06311 13.39685,-25.60679 44.92181,-34.118809 68.83153,-18.58513 10.31369,6.70061 17.98533,17.14909 21.14024,28.79221 1.43589,5.2991 2.79482,19.69344 1.8592,19.69344 -0.36496,0 -0.96184,1.98895 -1.32638,4.41989 -0.36454,2.43094 -2.17844,7.42214 -4.0309,11.09155 -8.5065,16.85001 -22.69898,26.33927 -41.46632,27.72487 -7.65472,0.56516 -9.81519,0.3634 -14.78873,-1.3811 z"
   id="path110" /><path
   style="fill:#4d4d4d;stroke-width:0.985915"
   d="m 364.68594,148.28173 c -5.09487,-4.39223 -9.66344,-8.36376 -10.15238,-8.8256 -1.04718,-0.98915 3.17881,-6.32086 28.82243,-36.36381 l 18.87996,-22.118949 -2.91048,-5.157099 c -6.60024,-11.694975 -8.93495,-26.755378 -5.89681,-38.038184 6.231,-23.140142 29.69172,-38.64396415 53.39285,-35.2842131 26.88982,3.8117622 43.86614,26.3408111 41.04755,54.4736261 -0.97999,9.781408 -5.2379,18.140544 -13.39561,26.298248 -11.36758,11.367585 -22.46886,15.478634 -39.19175,14.513582 l -9.85916,-0.568957 -22.46247,26.324396 c -23.47315,27.50884 -28.04516,32.73284 -28.64756,32.73284 -0.19974,0 -4.5317,-3.59364 -9.62657,-7.98588 z m 87.01248,-82.373006 c 5.66777,-4.105712 7.73821,-8.292822 7.73821,-15.649225 0,-12.175744 -7.07177,-19.344005 -19.08361,-19.344005 -3.03857,0 -6.08817,0.351961 -6.77688,0.782134 -0.6887,0.430175 -1.74968,0.857891 -2.35771,0.95048 -2.69552,0.410462 -6.7065,4.05534 -8.24556,7.492936 -0.92213,2.059648 -1.76437,6.514862 -1.87163,9.900477 -0.16781,5.296411 0.20569,6.786221 2.67571,10.672966 4.02109,6.327447 9.55081,9.010821 17.63106,8.55573 4.94293,-0.278392 6.93068,-0.927714 10.29041,-3.361493 z"
   id="path149" /><path
   style="fill:#4d4d4d;stroke-width:0.985915"
   d="m 160.30896,297.99296 c 2.17423,-15.58841 8.54166,-32.07833 16.64344,-43.10199 4.2174,-5.73839 15.42354,-16.48185 21.53871,-20.64943 6.53744,-4.45536 19.6371,-10.45259 26.9329,-12.33032 8.19988,-2.11041 31.78972,-2.13364 40.13791,-0.0395 8.38723,2.10392 26.51339,11.31784 33.86484,17.21424 15.77251,12.65071 27.54802,33.40475 30.76579,54.22392 0.62858,4.0669 1.36954,8.83627 1.6466,10.59859 l 0.50373,3.20423 h -86.65296 -86.65295 z"
   id="path188" /><path
   style="fill:#4d4d4d;stroke-width:0.985915"
   d="m 45.352113,488.50023 c 0,-0.28262 -2.576497,-1.0035 -5.725549,-1.60195 C 23.315862,483.79855 9.4723124,471.41156 3.9290757,454.9567 1.3636968,447.34149 1.0887236,433.88698 3.3406233,426.16357 7.4906611,411.93006 21.440433,398.37338 36.708699,393.73579 c 5.678529,-1.7248 8.578569,-2.00618 16.664217,-1.61682 l 9.789251,0.47138 3.526636,-3.54869 c 1.93965,-1.95178 13.168203,-14.64025 24.95234,-28.19658 11.784137,-13.55634 22.097177,-25.20322 22.917847,-25.88196 1.25304,-1.03632 2.8975,-0.0362 10.26236,6.24136 12.84003,10.9444 11.97596,9.60976 8.86343,13.69051 -1.47794,1.93767 -12.39865,14.8902 -24.26824,28.78339 l -21.581085,25.26035 3.44083,6.48388 c 5.332146,10.04786 6.600566,15.62409 6.172302,27.13471 -0.337559,9.07274 -0.703103,10.67627 -4.029542,17.6764 -6.441751,13.55596 -21.277129,25.17881 -34.352007,26.91325 -2.662927,0.35326 -4.841685,0.91787 -4.841685,1.2547 0,0.33683 -1.996479,0.61242 -4.43662,0.61242 -2.440141,0 -4.43662,-0.23124 -4.43662,-0.51386 z m 15.443211,-32.06388 c 10.98806,-6.43944 11.130081,-25.46373 0.243872,-32.66751 -3.565732,-2.35957 -5.191299,-2.7774 -10.685725,-2.74665 -7.776638,0.0435 -12.869578,2.22835 -16.602327,7.12224 -5.273408,6.91379 -3.747189,22.24503 2.669324,26.81399 1.510174,1.07534 3.028438,1.6725 3.373919,1.32701 0.345482,-0.34548 0.628149,-0.14307 0.628149,0.4498 0,1.46474 2.30659,1.959 9.772534,2.09407 5.125027,0.0927 7.131793,-0.3603 10.600254,-2.39295 z"
   id="path227" /><path
   style="fill:#4d4d4d;stroke-width:0.985915"
   d="m 435.77389,488.50023 c 4.2e-4,-0.28262 -2.57573,-1.0035 -5.72479,-1.60195 -16.84255,-3.20081 -32.02491,-17.60988 -36.64898,-34.78235 -1.666,-6.18706 -1.43118,-18.79797 0.47358,-25.4339 0.89925,-3.13286 3.14214,-8.41149 4.9842,-11.73029 l 3.3492,-6.03417 -15.54009,-18.12076 c -22.40423,-26.12479 -32.72334,-38.51198 -32.72334,-39.2815 0,-0.37063 3.88204,-3.93567 8.62676,-7.92231 4.74472,-3.98664 9.36508,-7.87046 10.26747,-8.63072 1.4742,-1.242 3.71462,1.00185 22.07563,22.10941 18.89315,21.71931 25.94515,29.56368 30.18231,33.57365 1.29502,1.22558 4.33743,1.60308 14.29578,1.7738 12.89321,0.22105 16.21187,0.51853 17.08726,1.53168 0.27113,0.3138 2.76212,1.79352 5.53555,3.28828 11.12933,5.99823 21.51552,18.14428 24.60606,28.77536 1.94906,6.70454 2.00965,20.31433 0.11879,26.68157 -4.56868,15.38442 -17.47002,29.14826 -30.82712,32.88801 -2.39957,0.67183 -4.36286,1.56599 -4.36286,1.98701 0,0.42101 -0.8807,0.53517 -1.9571,0.25369 -1.0764,-0.28149 -2.74013,-0.19502 -3.69718,0.19214 -2.06756,0.83641 -10.12223,1.22107 -10.12113,0.48335 z m 12.99372,-30.85938 c 0.71655,-0.71654 1.70233,-1.31267 2.19063,-1.32472 1.41999,-0.035 5.49867,-4.32932 7.15607,-7.53436 1.08514,-2.09843 1.42015,-4.98562 1.16492,-10.03975 -0.29641,-5.86993 -0.81957,-7.69908 -3.03136,-10.5989 -5.98734,-7.8498 -19.04214,-9.97387 -27.0772,-4.40557 -5.83115,4.04099 -8.33745,9.19089 -8.07068,16.58348 0.45288,12.54977 6.87345,18.62264 19.68889,18.62264 4.21864,0 7.15546,-0.47954 7.97873,-1.30282 z"
   id="path266" /></svg>
