<?xml version="1.0" encoding="UTF-8" standalone="no"?>
<svg
   viewBox="0 0 22 22"
   version="1.1"
   id="svg16611"
   sodipodi:docname="cv.svg"
   inkscape:version="1.1 (c68e22c387, 2021-05-23)"
   xmlns:inkscape="http://www.inkscape.org/namespaces/inkscape"
   xmlns:sodipodi="http://sodipodi.sourceforge.net/DTD/sodipodi-0.dtd"
   xmlns="http://www.w3.org/2000/svg"
   xmlns:svg="http://www.w3.org/2000/svg">
  <defs
     id="defs16615" />
  <sodipodi:namedview
     id="namedview16613"
     pagecolor="#ffffff"
     bordercolor="#666666"
     borderopacity="1.0"
     inkscape:pageshadow="2"
     inkscape:pageopacity="0.0"
     inkscape:pagecheckerboard="0"
     showgrid="false"
     inkscape:zoom="23.636364"
     inkscape:cx="10.978846"
     inkscape:cy="11.021154"
     inkscape:window-width="1366"
     inkscape:window-height="705"
     inkscape:window-x="1358"
     inkscape:window-y="-8"
     inkscape:window-maximized="1"
     inkscape:current-layer="svg16611" />
  <g
     color="#4d4d4d"
     id="g16609">
    <path
       d="m12 6v1h7v7h-3-1v1 3h-4v-2h-1v1 1 1h6l4-4v-1-7-1z"
       fill="#282C34"
       id="path16605" />
    <path
       d="m429.71429 533.79074a3 3 0 0 0 -3 3 3 3 0 0 0 3 3 3 3 0 0 0 3 -3 3 3 0 0 0 -3 -3m0 1a2 2 0 0 1 2 2 2 2 0 0 1 -2 2 2 2 0 0 1 -2 -2 2 2 0 0 1 2 -2m0 6a5 4.5 0 0 0 -5 4.5 5 4.5 0 0 0 .0332 .5h.967.045 7.91.045.963a5 4.5 0 0 0 .0371 -.5 5 4.5 0 0 0 -5 -4.5m.00005 1a4 3.5 0 0 1 3.95508 3h-7.91a4 3.5 0 0 1 3.95508 -3"
       transform="translate(-421.71-530.79)"
       fill="#282C34"
       id="path16607" />
  </g>
  <path
     style="fill:#4d4d4d;stroke-width:0.0423077"
     d="M 7.567557,8.9477829 C 6.7895601,8.8246311 6.0520794,8.3725823 5.6090813,7.7473085 5.2302578,7.2126141 5.0795778,6.7851707 5.0465907,6.1516563 5.0167631,5.5788213 5.0987993,5.1907827 5.3615673,4.6617877 5.6188426,4.1438504 6.115338,3.6382726 6.626962,3.3732451 8.1428161,2.5880142 9.9546082,3.1971439 10.687654,4.7384615 c 0.20101,0.4226486 0.281645,0.7798472 0.281743,1.248077 8.4e-5,0.5047065 -0.09046,0.8905302 -0.317794,1.3538461 -0.14242,0.2902591 -0.250272,0.4337228 -0.559219,0.743867 C 9.7805002,8.3973442 9.6430184,8.5010788 9.35,8.644408 9.1522115,8.7411555 8.8761538,8.8492868 8.7365385,8.8846996 8.4118647,8.9670515 7.8729931,8.9961313 7.567557,8.9477829 Z M 8.5522665,7.9398652 C 9.2711558,7.7405232 9.8289595,7.1461159 9.9803123,6.4181099 10.117841,5.7565986 9.907796,5.0567246 9.4214568,4.5559894 9.3182768,4.449755 9.096414,4.3000508 8.8904374,4.1976784 8.5615357,4.034211 8.5073761,4.020664 8.1206479,4.005131 7.6391255,3.9857905 7.2685391,4.0749911 6.9261313,4.2926526 6.0810694,4.8298407 5.750693,5.9607614 6.1775469,6.8551532 6.6011222,7.7426753 7.6067885,8.2020383 8.5522665,7.9398652 Z"
     id="path16654" />
  <path
     style="fill:#4d4d4d;stroke-width:0.0423077"
     d="m 3.0567555,14.374038 c 0.017222,-0.509997 0.041425,-0.691986 0.1324432,-0.995852 0.489067,-1.632765 1.9327002,-2.883964 3.7393768,-3.240922 0.5928636,-0.117136 1.0300887,-0.1423624 1.5569256,-0.08983 2.1626259,0.215645 3.8905889,1.592942 4.3750579,3.487199 0.09948,0.388951 0.146924,0.923848 0.108925,1.227979 l -0.02942,0.235464 H 7.9878738 3.0356826 Z M 11.951059,13.845192 C 11.873491,13.371687 11.485966,12.645452 11.091619,12.23457 10.684054,11.809915 9.9908042,11.387054 9.3923077,11.198043 8.8744184,11.034489 8.6245056,11.000946 7.9538462,11.004972 7.3932316,11.008338 7.2390264,11.024587 6.8911241,11.116957 6.1447213,11.315129 5.5567904,11.639442 5.040445,12.137821 4.4893808,12.669711 4.2117469,13.16302 4.0438212,13.908654 L 4.0176187,14.025 h 3.981448 3.9814483 z"
     id="path16693" />
  <path
     style="fill:#4d4d4d;stroke-width:0.0423077"
     d="M 10.026923,17.494231 V 16.013462 H 10.513462 11 v 0.99423 0.994231 h 2.009615 2.009616 V 16.013462 14.025 h 2.009615 2.009616 V 10.492308 6.9596154 H 15.526923 12.015385 V 6.4942308 6.0288462 h 3.976923 3.976923 v 4.4742058 4.474205 L 17.970027,16.976129 15.970823,18.975 h -2.97195 -2.97195 z"
     id="path18350" />
</svg>
